<svg width="185" height="35" viewBox="0 0 185 35" fill="none" xmlns="http://www.w3.org/2000/svg">
<path d="M0.0780029 0.843488H11.3404C20.2692 0.843488 24.7336 4.85694 24.7336 12.8839C24.7336 20.9108 20.2692 24.9242 11.3404 24.9242H1.70142V34.1567H0.0780029V0.843488ZM23.0595 12.8839C23.0595 9.58425 22.1632 6.99851 20.3707 5.12662C18.612 3.25473 15.6019 2.31879 11.3404 2.31879H1.70142V23.4965H11.3404C15.3652 23.4965 18.3245 22.5764 20.2185 20.7363C22.1125 18.8644 23.0595 16.2469 23.0595 12.8839ZM36.6048 0.843488L53.4985 34.1567H51.6214L36.6048 4.93626L24.1248 34.1567H22.197L36.6048 0.843488ZM80.7414 12.8363C80.7414 16.5483 79.6084 19.2768 77.3424 21.0218C75.0764 22.7668 71.6943 23.6393 67.1961 23.6393H66.4858L76.7843 34.1567H74.7044L63.0361 22.3067C67.6019 22.3067 70.9164 22.0371 72.9795 21.4977C75.0764 20.9266 76.6322 19.9431 77.6468 18.5471C78.6952 17.1511 79.2195 15.2475 79.2195 12.8363C79.2195 9.50493 78.2218 6.90333 76.2263 5.03144C74.2647 3.12783 71.3053 2.17602 67.3483 2.17602H57.6078V34.1567H56.0351V0.795898H67.3483C76.277 0.795898 80.7414 4.80935 80.7414 12.8363ZM83.278 0.843488H85.0029V21.5453L99.4107 0.843488H101.237L86.677 21.7357L105.854 34.1567H103.52L85.0029 22.4019V34.1567H83.278V0.843488ZM108.39 0.843488H110.115V34.1567H108.39V0.843488ZM112.652 0.843488H114.478L130.357 30.873L147.098 0.843488H149.077L130.357 34.2519L112.652 0.843488Z" fill="black"/>
<path d="M164.529 0.915005C164.352 0.950698 163.73 1.05778 163.134 1.16485C162.538 1.27193 161.574 1.50988 160.978 1.71214C160.382 1.9025 159.393 2.30702 158.759 2.60446C158.124 2.89 157.275 3.35401 156.856 3.61576C156.438 3.8775 155.639 4.44859 155.08 4.8888C154.522 5.32901 153.723 6.07856 153.305 6.54256C152.886 7.00657 152.265 7.77991 151.935 8.25582C151.593 8.71982 151.073 9.60025 150.768 10.1832C150.464 10.7662 150.071 11.6823 149.88 12.2058C149.703 12.7293 149.475 13.5265 149.36 13.9905C149.246 14.4664 149.132 15.7037 149.094 16.8459C149.056 18.1308 149.081 19.1897 149.17 19.7608C149.259 20.2486 149.335 20.665 149.348 20.6888C149.36 20.7007 149.741 20.6293 150.198 20.5222C150.654 20.4152 151.047 20.32 151.085 20.2962C151.123 20.2724 151.111 19.963 151.047 19.618C150.997 19.273 150.946 18.2379 150.946 17.3218C150.946 16.3105 151.022 15.2873 151.136 14.7043C151.25 14.1808 151.504 13.3004 151.694 12.7412C151.897 12.182 152.29 11.3016 152.582 10.7781C152.861 10.2546 153.368 9.45747 153.711 8.99347C154.053 8.52946 154.7 7.79181 155.157 7.3397C155.6 6.8876 156.4 6.19753 156.92 5.80491C157.44 5.41229 158.327 4.84121 158.885 4.54377C159.443 4.23443 160.331 3.81802 160.851 3.60386C161.371 3.4016 162.399 3.10416 163.134 2.9257C163.971 2.73534 165.024 2.59257 165.988 2.54497C166.876 2.50928 168.042 2.53308 168.778 2.61636C169.476 2.68774 170.554 2.89 171.188 3.04467C171.822 3.21124 173.014 3.66335 173.851 4.05597C174.688 4.44859 175.855 5.10296 176.451 5.51937C177.047 5.94769 177.96 6.70913 178.48 7.22073C179.013 7.74422 179.723 8.56516 180.079 9.05296C180.434 9.54076 180.865 10.1832 181.042 10.4807C181.22 10.7781 181.575 11.5039 181.816 12.0868C182.07 12.6698 182.4 13.693 182.552 14.3474C182.767 15.2873 182.831 15.9298 182.831 17.3813C182.831 18.6543 182.767 19.5228 182.615 20.1772C182.501 20.7007 182.285 21.474 182.133 21.9024C181.994 22.3307 181.6 23.2111 181.271 23.8655C180.928 24.5198 180.37 25.424 180.015 25.888C179.66 26.3521 179.241 26.8636 179.077 27.054L178.798 27.3752L180.142 28.6245C180.827 27.8868 181.321 27.2444 181.702 26.7209C182.07 26.1974 182.64 25.2813 182.945 24.6983C183.262 24.1153 183.706 23.104 183.921 22.4734C184.137 21.831 184.403 20.8078 184.518 20.2129C184.657 19.499 184.733 18.4639 184.72 17.3218C184.72 16.0368 184.644 15.204 184.467 14.3474C184.327 13.693 184.061 12.7293 183.871 12.2058C183.68 11.6823 183.275 10.7662 182.97 10.1832C182.653 9.60025 182.07 8.66034 181.677 8.10115C181.283 7.54196 180.446 6.59016 179.812 5.97148C179.178 5.3647 178.265 4.57946 177.783 4.23443C177.301 3.8894 176.324 3.30642 175.627 2.9376C174.929 2.56877 173.902 2.10476 173.344 1.9025C172.786 1.70024 171.733 1.40281 170.998 1.23624C169.881 0.98639 169.285 0.9388 167.256 0.903107C165.924 0.879312 164.707 0.89121 164.529 0.915005Z" fill="#3D92C1"/>
</svg>
